<svg viewBox="0 0 2008 307" xmlns="http://www.w3.org/2000/svg" fill-rule="evenodd" clip-rule="evenodd" stroke-linejoin="round" stroke-miterlimit="1.414"><g fill-rule="nonzero"><path d="M403.235 124.213l-41.688 55.576h-4.754l-40.775-55.76v93.054h-24.12V89.117h27.79l40.03 55.013 40.03-55.013h27.608v127.967h-24.12v-92.87zm124.438 17.542L561.69 88.93h29.05v1.092l-50.988 74.04v52.83H515.61v-52.83l-49.17-74.04V88.93h28.695l32.538 52.825zm97.417 75.143V89.122h91.94v23.212h-67.81v34.91h64.166v22.31H649.22V216.9h-24.13zM869.648 89.122v73.29c0 37.85-23.208 57.218-55.396 57.218-30.708 0-56.842-18.642-56.842-57.216v-73.29h23.946v73.29c0 23.02 13.15 35.283 33.08 35.283 19.924 0 31.266-13.35 31.266-35.284v-73.29h23.946zm80.412 21.745h-40.587V88.93h105.277v21.937h-40.557v106.026H950.06V110.867zm219.13-21.745v73.29c0 37.85-23.2 57.218-55.39 57.218-30.71 0-56.84-18.642-56.84-57.216v-73.29h23.94v73.29c0 23.02 13.16 35.283 33.09 35.283 19.92 0 31.27-13.35 31.27-35.284v-73.29h23.93zm71.64 22.3v40.934h36.74c15.36 0 21.94-10.226 21.94-20.458 0-10.25-6.77-20.475-21.94-20.475h-36.74zm89.19 105.47h-28.69l-37.28-42.774h-23.22v42.775h-24.14V88.75c20.29 0 40.58.184 60.88.184 30.15.183 46.06 20.304 46.06 42.4 0 17.542-8.03 35.296-32.34 40.218l38.73 43.7v1.64zm129.05.006h-95.8V88.935h95.8v23.4h-71.84v29.425h69.29v22.495h-69.29v28.868h71.84v23.775z" fill="#fff"/><path d="M1589.38 88.75h24.12V216.9h-15v.19l-67.26-86.487V216.9h-24.12V88.935h19.54l62.72 79.333V88.75zm89.9 65.46c.54 21.01 11.88 43.487 42.05 43.487 30.15 0 41.49-22.65 41.87-43.688.35-21.576-11.72-45.708-41.87-45.708-30.17 0-42.6 24.316-42.05 45.907m107.67-.562c-.37 33.087-20.65 66.166-65.62 66.166-44.96 0-65.81-32.338-65.81-65.992 0-33.625 21.57-67.455 65.81-67.455 44.04 0 66 33.83 65.62 67.28m174.01 63.25h-20.48l-15.91-40.225-13.53-40.392-13.35 40.767-15.52 39.85h-20.48l-46.99-127.96h27.07l30.14 92.302L1903 88.934h15.72l31.99 92.303 29.24-92.303h27.06l-46.05 127.963zM122.55 199.502c.028.025.055.045.082.07l-.073-.076-.01.005zm-22.76-10.12c-4.262 1.47-8.114 3.587-10.046 5.514-4.87 4.87-2.49 10.72 1.356 14.573 2.344 2.34 5.046 3.778 7.606 4.05 2.512.242 4.922-.663 6.96-2.704 1.888-1.888 3.886-5.68 5.344-10.137a8.064 8.064 0 0 1 2.61-3.78l-10.136-10.137a7.964 7.964 0 0 1-3.693 2.62" fill="#49c2c4"/></g><g fill="#49c2c4" fill-rule="nonzero"><path d="M200.865 125.92l-17.914-17.91-28.71-28.703-26.41 26.4v.11c5.665 1.82 10.536 4.49 13.342 7.296 3.354 3.35 5.125 7.45 5.125 11.855 0 4.992-2.304 10.04-6.482 14.224-3.67 3.665-8.116 5.932-12.53 6.385-4.97.525-9.758-1.245-13.55-5.04-2.837-2.84-5.555-7.63-7.45-13.147l-.09-.07-26.06 26.172 22.91 22.91v.06c1.874 2.033 2.632 4.81 2.008 7.51-.638 2.764-2.605 4.954-5.262 5.86-4.262 1.472-8.114 3.586-10.046 5.515-4.87 4.87-2.49 10.72 1.356 14.572 2.344 2.34 5.046 3.777 7.606 4.05 2.512.243 4.922-.662 6.96-2.704 1.888-1.887 3.886-5.68 5.344-10.137a8.08 8.08 0 0 1 5.837-5.38 8.23 8.23 0 0 1 7.73 2.173l.567.57-.004.003 27.942 27.942 26.17-26.16c2.367-2.367 19.24-19.236 21.605-21.61l26.372-26.374-26.365-26.373z"/><path d="M125.525 112.767c-3.026-.988-5.054-3.803-5.054-7.02 0-1.962.77-3.818 2.166-5.226l26.38-26.365-26.373-26.368L101.03 26.17 74.867.004.718 74.154l74.15 74.152 26.16-26.167a7.275 7.275 0 0 1 6.843-1.97 7.403 7.403 0 0 1 5.35 4.834c1.537 4.445 3.665 8.31 5.71 10.353 2.23 2.23 4.79 3.216 7.604 2.926 2.745-.29 5.616-1.807 8.094-4.28 2.788-2.8 4.33-6.003 4.33-9.035 0-2.45-1.002-4.692-2.98-6.674-1.975-1.967-5.88-4.044-10.453-5.527m-6.136 90.356a.858.858 0 0 0-.625-.262.904.904 0 0 0-.2.023c-.45.11-.547.422-.58.524-1.824 5.587-4.425 10.343-7.136 13.05-3.204 3.205-7.098 4.9-11.264 4.9-.475 0-.99-.027-1.626-.086-4.245-.442-8.52-2.634-12.05-6.17-3.835-3.833-5.994-8.233-6.25-12.73-.257-4.53 1.436-8.752 4.898-12.21 2.745-2.748 7.427-5.394 12.845-7.26.265-.09.43-.284.5-.575a.97.97 0 0 0-.26-.91l-.57-.568.023-.023-22.947-22.948-26.378 26.368c-7.2 7.208-14.404 14.413-21.61 21.614L-.002 232.03l26.37 26.37c7.043 7.045 14.087 14.087 21.133 21.127l26.646 26.65 74.146-74.147-28.588-28.59-.32-.316z"/></g></svg>